<?xml version="1.0" encoding="UTF-8" standalone="no"?><!DOCTYPE svg PUBLIC "-//W3C//DTD SVG 1.1//EN" "http://www.w3.org/Graphics/SVG/1.1/DTD/svg11.dtd"><svg width="100%" height="100%" viewBox="0 0 1639 984" version="1.1" xmlns="http://www.w3.org/2000/svg" xmlns:xlink="http://www.w3.org/1999/xlink" xml:space="preserve" xmlns:serif="http://www.serif.com/" style="fill-rule:evenodd;clip-rule:evenodd;stroke-linecap:round;stroke-linejoin:round;stroke-miterlimit:1.5;"><g transform="matrix(4.16667,0,0,4.16667,382.238,-960.307)"><text x="207.621px" y="358.609px" style="font-family:'Calibre-Regular', 'Calibre', sans-serif;font-size:9px;fill:#799dab;">Wij staan v<tspan x="245.286px " y="358.609px ">o</tspan>or kwaliteit.</text><text x="206.51px" y="369.409px" style="font-family:'Calibre-Regular', 'Calibre', sans-serif;font-size:9px;fill:#799dab;">Wij gelov<tspan x="237.902px " y="369.409px ">e</tspan>n in oneindige</text><text x="211.113px" y="380.209px" style="font-family:'Calibre-Regular', 'Calibre', sans-serif;font-size:9px;fill:#799dab;">gr<tspan x="218.394px " y="380.209px ">o</tspan>ei en stre<tspan x="254.619px " y="380.209px ">v</tspan>en altijd</text><text x="223.628px" y="391.009px" style="font-family:'Calibre-Regular', 'Calibre', sans-serif;font-size:9px;fill:#799dab;">naar het beste</text></g><g transform="matrix(4.16667,0,0,4.16667,1087.76,-1198.11)"><text x="55.367px" y="386.747px" style="font-family:'Calibre-Bold', 'Calibre', sans-serif;font-weight:700;font-size:12px;fill:#799dab;">kw<tspan x="69.707px " y="386.747px ">a</tspan>liteits</text><text x="56.621px" y="401.147px" style="font-family:'Calibre-Bold', 'Calibre', sans-serif;font-weight:700;font-size:12px;fill:#799dab;">gedre<tspan x="84.857px 90.593px " y="401.147px 401.147px ">ve</tspan>n</text></g><g id="Onze-missie-is-het-" serif:id="Onze missie is het " transform="matrix(4.16667,0,0,4.16667,-500.159,-594.566)"><text x="288.871px" y="307.245px" style="font-family:'Calibre-Regular', 'Calibre', sans-serif;font-size:7px;fill:#799dab;">Onze missie is het</text><text x="278.98px" y="315.645px" style="font-family:'Calibre-Regular', 'Calibre', sans-serif;font-size:7px;fill:#799dab;">ontwikk<tspan x="300.19px " y="315.645px ">e</tspan>len van soft<tspan x="334.7px " y="315.645px ">w</tspan>ar<tspan x="344.388px " y="315.645px ">e</tspan></text><text x="277.52px" y="324.045px" style="font-family:'Calibre-Regular', 'Calibre', sans-serif;font-size:7px;fill:#799dab;">oplossingen die aansluiten</text><text x="289.336px" y="332.445px" style="font-family:'Calibre-Regular', 'Calibre', sans-serif;font-size:7px;fill:#799dab;">aan uw specifieke</text><text x="273.642px" y="340.845px" style="font-family:'Calibre-Regular', 'Calibre', sans-serif;font-size:7px;fill:#799dab;">benodigheden. Om mensen &amp;</text><text x="275.357px" y="349.245px" style="font-family:'Calibre-Regular', 'Calibre', sans-serif;font-size:7px;fill:#799dab;">bedrijven te v<tspan x="312.128px " y="349.245px ">e</tspan>rbinden en te</text><text x="298.853px" y="357.645px" style="font-family:'Calibre-Regular', 'Calibre', sans-serif;font-size:7px;fill:#799dab;">verst<tspan x="312.489px " y="357.645px ">e</tspan>rken</text></g><text x="739.998px" y="627.997px" style="font-family:'Calibre-Bold', 'Calibre', sans-serif;font-weight:700;font-size:50px;fill:#799dab;">missie</text><text x="168.317px" y="303.085px" style="font-family:'Calibre-Bold', 'Calibre', sans-serif;font-weight:700;font-size:50px;fill:#799dab;">visie</text><g transform="matrix(4.16667,0,0,4.16667,-1150.88,10.6585)"><g transform="matrix(0.962308,0,0,1,17.0607,0)"><text x="452.637px" y="53.941px" style="font-family:'Calibre-Regular', 'Calibre', sans-serif;font-size:10px;fill:#799dab;">Met onze</text></g><g transform="matrix(0.962308,0,0,1,17.106,0)"><text x="453.838px" y="61.941px" style="font-family:'Calibre-Regular', 'Calibre', sans-serif;font-size:10px;fill:#799dab;">softwar<tspan x="482.61px " y="61.941px ">e</tspan></text></g><g transform="matrix(0.962308,0,0,1,16.7713,0)"><text x="444.959px" y="69.941px" style="font-family:'Calibre-Regular', 'Calibre', sans-serif;font-size:10px;fill:#799dab;">verbinden we</text></g><g transform="matrix(0.962308,0,0,1,16.7525,0)"><text x="444.46px" y="77.941px" style="font-family:'Calibre-Regular', 'Calibre', sans-serif;font-size:10px;fill:#799dab;">gebruik<tspan x="473.735px " y="77.941px ">e</tspan>rs en</text></g><g transform="matrix(0.962308,0,0,1,17.0398,0)"><text x="452.082px" y="85.941px" style="font-family:'Calibre-Regular', 'Calibre', sans-serif;font-size:10px;fill:#799dab;">sy<tspan x="460.616px " y="85.941px ">s</tspan>temen</text></g></g><g><path d="M617.995,650.499l-222.537,-139.737l-5.539,8.822l222.536,139.736l5.54,-8.821Z" style="fill:none;stroke:#799dab;stroke-width:4.17px;"/><path d="M1225.85,437.363l-221.461,-123.845l-5.085,9.092l221.462,123.844l5.084,-9.091Z" style="fill:none;stroke:#799dab;stroke-width:4.17px;"/><path d="M1214.87,625.755l-202.414,61.287l3.019,9.969l202.413,-61.286l-3.018,-9.97Z" style="fill:none;stroke:#799dab;stroke-width:4.17px;"/><path d="M590.944,265.197l-160.997,49.991l3.089,9.948l160.997,-49.991l-3.089,-9.948Z" style="fill:none;stroke:#799dab;stroke-width:4.17px;"/><g><circle cx="220.833" cy="379.489" r="218.75" style="fill:none;stroke:#799dab;stroke-width:4.17px;"/><circle cx="220.879" cy="379.489" r="208.333" style="fill:none;stroke:#799dab;stroke-width:4.17px;"/></g><g><circle cx="1417.56" cy="543.3" r="218.75" style="fill:none;stroke:#799dab;stroke-width:4.17px;"/><circle cx="1417.61" cy="543.3" r="208.333" style="fill:none;stroke:#799dab;stroke-width:4.17px;"/></g><g><circle cx="805.794" cy="762.5" r="218.75" style="fill:none;stroke:#799dab;stroke-width:4.17px;"/><circle cx="805.84" cy="762.5" r="208.333" style="fill:none;stroke:#799dab;stroke-width:4.17px;"/></g><g><circle cx="805.794" cy="220.833" r="218.75" style="fill:none;stroke:#799dab;stroke-width:4.17px;"/><circle cx="805.84" cy="220.833" r="208.333" style="fill:none;stroke:#799dab;stroke-width:4.17px;"/></g></g><g transform="matrix(4.16667,0,0,4.16667,-658.763,-697.95)"><text x="174.067px" y="256.736px" style="font-family:'Calibre-Regular', 'Calibre', sans-serif;font-size:10px;fill:#799dab;">Wij zien een wer<tspan x="236.407px " y="256.736px ">e</tspan>ld</text><text x="175.122px" y="264.736px" style="font-family:'Calibre-Regular', 'Calibre', sans-serif;font-size:10px;fill:#799dab;">waarin het gebruik</text><text x="173.327px" y="272.736px" style="font-family:'Calibre-Regular', 'Calibre', sans-serif;font-size:10px;fill:#799dab;">v<tspan x="177.757px " y="272.736px ">a</tspan>n softwar<tspan x="218.137px " y="272.736px ">e</tspan> net zo</text><text x="182.247px" y="280.736px" style="font-family:'Calibre-Regular', 'Calibre', sans-serif;font-size:10px;fill:#799dab;">makk<tspan x="203.067px " y="280.736px ">e</tspan>lijk is als</text><text x="194.862px" y="288.736px" style="font-family:'Calibre-Regular', 'Calibre', sans-serif;font-size:10px;fill:#799dab;">ademen.</text></g><g transform="matrix(4.16667,0,0,4.16667,-232.576,-44.3864)"><text x="223.228px" y="39.955px" style="font-family:'Calibre-Bold', 'Calibre', sans-serif;font-weight:700;font-size:12px;fill:#799dab;">gebruik<tspan x="261.04px " y="39.955px ">e</tspan>rs</text><text x="233.254px" y="54.355px" style="font-family:'Calibre-Bold', 'Calibre', sans-serif;font-weight:700;font-size:12px;fill:#799dab;">gemak</text></g></svg>