<?xml version="1.0" encoding="UTF-8" standalone="no"?><!DOCTYPE svg PUBLIC "-//W3C//DTD SVG 1.1//EN" "http://www.w3.org/Graphics/SVG/1.1/DTD/svg11.dtd"><svg width="100%" height="100%" viewBox="0 0 3334 2500" version="1.1" xmlns="http://www.w3.org/2000/svg" xmlns:xlink="http://www.w3.org/1999/xlink" xml:space="preserve" xmlns:serif="http://www.serif.com/" style="fill-rule:evenodd;clip-rule:evenodd;stroke-linecap:round;stroke-linejoin:round;stroke-miterlimit:1.5;"><g transform="matrix(4.16667,0,0,4.16667,781.72,-884.644)"><text x="156.356px" y="278.443px" style="font-family:'Calibre-Bold', 'Calibre', sans-serif;font-weight:700;font-size:12px;fill:#799dab;">g<tspan x="162.968px 169.064px 175.772px 180.512px 187.076px 190.34px 196.688px 202.784px 207.5px " y="278.443px 278.443px 278.443px 278.443px 278.443px 278.443px 278.443px 278.443px 278.443px ">ebruikers</tspan></text><text x="167.282px" y="292.843px" style="font-family:'Calibre-Bold', 'Calibre', sans-serif;font-weight:700;font-size:12px;fill:#799dab;">g<tspan x="173.894px 179.99px 189.578px 195.674px " y="292.843px 292.843px 292.843px 292.843px ">emak</tspan></text></g><g transform="matrix(4.16667,0,0,4.16667,794.453,-707.18)"><g transform="matrix(0.962308,0,0,1,5.72248,0)"><text x="151.823px" y="269.682px" style="font-family:'Calibre-Regular', 'Calibre', sans-serif;font-size:8px;fill:#799dab;">M<tspan x="157.951px 161.847px 164.623px 166.631px 170.695px 174.847px 178.517px 182.413px 184.421px 187.973px 192.037px 194.614px 197.332px 202.579px 206.419px 209.119px " y="269.682px 269.682px 269.682px 269.682px 269.682px 269.682px 269.682px 269.682px 269.682px 269.682px 269.682px 269.682px 269.682px 269.682px 269.682px 269.682px ">et onze software</tspan></text></g><g transform="matrix(0.962308,0,0,1,5.35134,0)"><text x="141.976px" y="277.682px" style="font-family:'Calibre-Regular', 'Calibre', sans-serif;font-size:8px;fill:#799dab;">v<tspan x="145.79px 149.686px 152.494px 156.75px 158.662px 162.814px 167.07px 170.966px 175.118px 177.126px 182.398px 186.294px 188.302px 192.55px 196.446px 200.702px 203.51px 207.646px 209.558px 213.402px 217.298px 220.081px " y="277.682px 277.682px 277.682px 277.682px 277.682px 277.682px 277.682px 277.682px 277.682px 277.682px 277.682px 277.682px 277.682px 277.682px 277.682px 277.682px 277.682px 277.682px 277.682px 277.682px 277.682px 277.682px ">erbinden we gebruikers</tspan></text></g><g transform="matrix(0.962308,0,0,1,6.07834,0)"><text x="161.264px" y="285.682px" style="font-family:'Calibre-Regular', 'Calibre', sans-serif;font-size:8px;fill:#799dab;">e<tspan x="165.16px 169.312px 171.32px 174.805px 178.627px 182.179px 184.914px 188.81px 194.786px 198.682px " y="285.682px 285.682px 285.682px 285.682px 285.682px 285.682px 285.682px 285.682px 285.682px 285.682px ">n systemen</tspan></text></g></g><text x="1484.15px" y="798.83px" style="font-family:'Calibre-Bold', 'Calibre', sans-serif;font-weight:700;font-size:50px;fill:#799dab;">m<tspan x="1524.1px 1537.7px 1561.6px 1585.5px 1599.1px " y="798.83px 798.83px 798.83px 798.83px 798.83px ">issie</tspan></text><g transform="matrix(4.16667,0,0,4.16667,-579.027,-199.382)"><text x="618.684px" y="214.194px" style="font-family:'Calibre-Regular', 'Calibre', sans-serif;font-size:8px;fill:#799dab;">W<tspan x="625.06px 626.972px 628.868px 630.876px 634.428px 637.148px 640.988px 644.828px 648.98px 650.988px 654.804px 658.884px 662.948px 665.756px 667.764px 671.692px 676.94px 680.78px 682.692px 684.604px 687.34px 691.236px 693.148px 696.02px " y="214.194px 214.194px 214.194px 214.194px 214.194px 214.194px 214.194px 214.194px 214.194px 214.194px 214.194px 214.194px 214.194px 214.194px 214.194px 214.194px 214.194px 214.194px 214.194px 214.194px 214.194px 214.194px 214.194px 214.194px ">ij staan voor kwaliteit.</tspan></text><text x="617.816px" y="223.794px" style="font-family:'Calibre-Regular', 'Calibre', sans-serif;font-size:8px;fill:#799dab;">W<tspan x="624.192px 626.104px 628px 630.008px 634.256px 638.152px 640.064px 644.064px 647.88px 651.776px 655.928px 657.936px 659.848px 664px 666.008px 670.072px 674.224px 678.12px 680.032px 684.184px 688.44px 690.352px 694.6px " y="223.794px 223.794px 223.794px 223.794px 223.794px 223.794px 223.794px 223.794px 223.794px 223.794px 223.794px 223.794px 223.794px 223.794px 223.794px 223.794px 223.794px 223.794px 223.794px 223.794px 223.794px 223.794px 223.794px ">ij geloven in oneindige</tspan></text><text x="613.704px" y="233.394px" style="font-family:'Calibre-Regular', 'Calibre', sans-serif;font-size:8px;fill:#799dab;">g<tspan x="617.952px 620.656px 624.736px 628.632px 630.544px 632.552px 636.448px 640.6px 642.608px 646.16px 648.936px 651.64px 655.496px 659.312px 663.208px 667.36px 669.368px 673.208px 675.12px 677.896px 679.808px 681.704px 685.96px 687.968px 692.12px 695.96px 699.8px " y="233.394px 233.394px 233.394px 233.394px 233.394px 233.394px 233.394px 233.394px 233.394px 233.394px 233.394px 233.394px 233.394px 233.394px 233.394px 233.394px 233.394px 233.394px 233.394px 233.394px 233.394px 233.394px 233.394px 233.394px 233.394px 233.394px 233.394px ">roei en streven altijd naar</tspan></text><text x="642.556px" y="242.994px" style="font-family:'Calibre-Regular', 'Calibre', sans-serif;font-size:8px;fill:#799dab;">h<tspan x="646.708px 650.604px 653.38px 655.388px 659.66px 663.572px 667.124px 669.86px " y="242.994px 242.994px 242.994px 242.994px 242.994px 242.994px 242.994px 242.994px ">et beste</tspan></text></g><g transform="matrix(4.16667,0,0,4.16667,399.281,-517.423)"><text x="245.557px" y="325.425px" style="font-family:'Calibre-Regular', 'Calibre', sans-serif;font-size:8px;fill:#799dab;">O<tspan x="250.829px 254.981px 258.653px 262.549px 264.557px 270.533px 272.445px 276.013px 279.565px 281.477px 285.373px 287.381px 289.293px 292.845px 294.853px 299.005px 302.901px " y="325.425px 325.425px 325.425px 325.425px 325.425px 325.425px 325.425px 325.425px 325.425px 325.425px 325.425px 325.425px 325.425px 325.425px 325.425px 325.425px 325.425px ">nze missie is het</tspan></text><text x="233.533px" y="335.025px" style="font-family:'Calibre-Regular', 'Calibre', sans-serif;font-size:8px;fill:#799dab;">o<tspan x="237.597px 241.749px 244.469px 249.741px 251.653px 255.605px 259.453px 263.349px 265.261px 269.157px 273.309px 275.317px 279.101px 282.941px 287.093px 289.101px 292.653px 296.717px 299.293px 302.013px 307.261px 311.101px 313.805px " y="335.025px 335.025px 335.025px 335.025px 335.025px 335.025px 335.025px 335.025px 335.025px 335.025px 335.025px 335.025px 335.025px 335.025px 335.025px 335.025px 335.025px 335.025px 335.025px 335.025px 335.025px 335.025px 335.025px ">ntwikkelen van software</tspan></text><text x="231.625px" y="344.625px" style="font-family:'Calibre-Regular', 'Calibre', sans-serif;font-size:8px;fill:#799dab;">o<tspan x="235.689px 239.945px 241.857px 245.921px 249.489px 253.041px 254.953px 259.105px 263.353px 267.249px 271.401px 273.409px 277.665px 279.577px 283.473px 285.481px 289.321px 293.161px 297.313px 300.865px 302.777px 306.913px 308.825px 311.561px 315.457px " y="344.625px 344.625px 344.625px 344.625px 344.625px 344.625px 344.625px 344.625px 344.625px 344.625px 344.625px 344.625px 344.625px 344.625px 344.625px 344.625px 344.625px 344.625px 344.625px 344.625px 344.625px 344.625px 344.625px 344.625px 344.625px ">plossingen die aansluiten</tspan></text><text x="246.209px" y="354.225px" style="font-family:'Calibre-Regular', 'Calibre', sans-serif;font-size:8px;fill:#799dab;">a<tspan x="250.049px 253.889px 258.041px 260.049px 264.185px 269.457px 271.465px 275.017px 279.289px 283.201px 287.009px 288.921px 291.473px 293.385px 297.281px 301.129px " y="354.225px 354.225px 354.225px 354.225px 354.225px 354.225px 354.225px 354.225px 354.225px 354.225px 354.225px 354.225px 354.225px 354.225px 354.225px 354.225px ">an uw specifieke</tspan></text><text x="244.593px" y="363.825px" style="font-family:'Calibre-Regular', 'Calibre', sans-serif;font-size:8px;fill:#799dab;">b<tspan x="248.865px 252.761px 256.913px 260.993px 265.249px 267.161px 271.409px 275.561px 279.473px 283.729px 287.625px 291.777px 293.385px 295.393px 300.665px " y="363.825px 363.825px 363.825px 363.825px 363.825px 363.825px 363.825px 363.825px 363.825px 363.825px 363.825px 363.825px 363.825px 363.825px 363.825px ">enodigheden. Om</tspan></text><text x="238.557px" y="373.425px" style="font-family:'Calibre-Regular', 'Calibre', sans-serif;font-size:8px;fill:#799dab;">m<tspan x="244.533px 248.429px 252.581px 256.133px 260.029px 264.181px 266.189px 271.109px 273.117px 277.389px 281.301px 285.557px 288.365px 290.277px 292.173px 295.989px 299.885px 304.037px 306.045px 308.781px " y="373.425px 373.425px 373.425px 373.425px 373.425px 373.425px 373.425px 373.425px 373.425px 373.425px 373.425px 373.425px 373.425px 373.425px 373.425px 373.425px 373.425px 373.425px 373.425px 373.425px ">ensen &amp; bedrijven te</tspan></text><text x="249.697px" y="383.025px" style="font-family:'Calibre-Regular', 'Calibre', sans-serif;font-size:8px;fill:#799dab;">v<tspan x="253.513px 257.409px 260.217px 264.473px 266.385px 270.537px 274.793px 278.689px 282.841px 284.849px 288.745px 292.897px 294.905px 297.641px " y="383.025px 383.025px 383.025px 383.025px 383.025px 383.025px 383.025px 383.025px 383.025px 383.025px 383.025px 383.025px 383.025px 383.025px ">erbinden en te</tspan></text><text x="257.925px" y="392.625px" style="font-family:'Calibre-Regular', 'Calibre', sans-serif;font-size:8px;fill:#799dab;">v<tspan x="261.741px 265.637px 268.421px 271.973px 274.709px 278.605px 281.413px 285.261px 289.157px " y="392.625px 392.625px 392.625px 392.625px 392.625px 392.625px 392.625px 392.625px 392.625px ">ersterken</tspan></text></g><g transform="matrix(4.16667,0,0,4.16667,-524.159,-148.563)"><text x="618.213px" y="176.175px" style="font-family:'Calibre-Bold', 'Calibre', sans-serif;font-weight:700;font-size:12px;fill:#799dab;">k<tspan x="624.789px 633.273px 639.369px 642.633px 645.897px 650.529px 656.625px 659.889px 664.521px " y="176.175px 176.175px 176.175px 176.175px 176.175px 176.175px 176.175px 176.175px 176.175px ">waliteits</tspan></text><text x="619.827px" y="190.575px" style="font-family:'Calibre-Bold', 'Calibre', sans-serif;font-weight:700;font-size:12px;fill:#799dab;">g<tspan x="626.439px 632.607px 639.315px 643.983px 649.863px 655.959px 662.055px " y="190.575px 190.575px 190.575px 190.575px 190.575px 190.575px 190.575px ">edreven</tspan></text></g><text x="908.397px" y="473.918px" style="font-family:'Calibre-Bold', 'Calibre', sans-serif;font-weight:700;font-size:50px;fill:#799dab;">v<tspan x="934.747px 948.347px 972.247px 985.847px " y="473.918px 473.918px 473.918px 473.918px ">isie</tspan></text><g transform="matrix(4.16667,0,0,4.16667,215.143,-1032.69)"><text x="136.053px" y="378.277px" style="font-family:'Calibre-Regular', 'Calibre', sans-serif;font-size:8px;fill:#799dab;">W<tspan x="142.429px 144.341px 146.237px 148.245px 151.957px 153.869px 157.765px 161.917px 163.925px 167.837px 171.733px 175.885px 177.893px 183.165px 187.061px 189.765px 193.661px 195.573px 199.829px 201.837px 207.085px 210.925px 214.765px 217.573px 219.485px " y="378.277px 378.277px 378.277px 378.277px 378.277px 378.277px 378.277px 378.277px 378.277px 378.277px 378.277px 378.277px 378.277px 378.277px 378.277px 378.277px 378.277px 378.277px 378.277px 378.277px 378.277px 378.277px 378.277px 378.277px 378.277px ">ij zien een wereld waarin</tspan></text><text x="132.213px" y="386.277px" style="font-family:'Calibre-Regular', 'Calibre', sans-serif;font-size:8px;fill:#799dab;">h<tspan x="136.365px 140.261px 143.037px 145.045px 149.293px 153.189px 157.445px 160.253px 164.389px 166.301px 170.253px 172.261px 176.045px 179.885px 184.037px 186.045px 189.597px 193.661px 196.237px 198.957px 204.205px 208.045px 210.749px 214.645px 216.653px 220.805px 224.701px " y="386.277px 386.277px 386.277px 386.277px 386.277px 386.277px 386.277px 386.277px 386.277px 386.277px 386.277px 386.277px 386.277px 386.277px 386.277px 386.277px 386.277px 386.277px 386.277px 386.277px 386.277px 386.277px 386.277px 386.277px 386.277px 386.277px 386.277px ">et gebruik van software net</tspan></text><text x="135.173px" y="394.277px" style="font-family:'Calibre-Regular', 'Calibre', sans-serif;font-size:8px;fill:#799dab;">z<tspan x="138.845px 142.909px 144.917px 150.893px 154.733px 158.685px 162.533px 166.429px 168.341px 170.253px 172.149px 176.101px 178.109px 180.021px 183.573px 185.581px 189.421px 191.333px 194.885px 196.893px 200.733px 204.989px 208.885px 214.861px 218.757px 222.909px " y="394.277px 394.277px 394.277px 394.277px 394.277px 394.277px 394.277px 394.277px 394.277px 394.277px 394.277px 394.277px 394.277px 394.277px 394.277px 394.277px 394.277px 394.277px 394.277px 394.277px 394.277px 394.277px 394.277px 394.277px 394.277px 394.277px ">o makkelijk is als ademen.</tspan></text></g><g><path d="M1362.2,821.332l-222.537,-139.737l-5.54,8.822l222.537,139.737l5.54,-8.822Z" style="fill:none;stroke:#799dab;stroke-width:4.17px;"/><path d="M1970.05,608.196l-221.462,-123.844l-5.084,9.091l221.462,123.845l5.084,-9.092Z" style="fill:none;stroke:#799dab;stroke-width:4.17px;"/><path d="M1959.07,796.588l-202.413,61.287l3.019,9.97l202.413,-61.287l-3.019,-9.97Z" style="fill:none;stroke:#799dab;stroke-width:4.17px;"/><path d="M1335.15,436.03l-160.997,49.991l3.089,9.948l160.997,-49.991l-3.089,-9.948Z" style="fill:none;stroke:#799dab;stroke-width:4.17px;"/><g><circle cx="965.039" cy="550.322" r="218.75" style="fill:none;stroke:#799dab;stroke-width:4.17px;"/><circle cx="965.085" cy="550.322" r="208.333" style="fill:none;stroke:#799dab;stroke-width:4.17px;"/></g><g><circle cx="2161.76" cy="714.133" r="218.75" style="fill:none;stroke:#799dab;stroke-width:4.17px;"/><circle cx="2161.81" cy="714.133" r="208.333" style="fill:none;stroke:#799dab;stroke-width:4.17px;"/></g><g><circle cx="1550" cy="933.333" r="218.75" style="fill:none;stroke:#799dab;stroke-width:4.17px;"/><circle cx="1550.05" cy="933.333" r="208.333" style="fill:none;stroke:#799dab;stroke-width:4.17px;"/></g><g><circle cx="1550" cy="391.667" r="218.75" style="fill:none;stroke:#799dab;stroke-width:4.17px;"/><circle cx="1550.05" cy="391.667" r="208.333" style="fill:none;stroke:#799dab;stroke-width:4.17px;"/></g></g></svg>