<?xml version="1.0" encoding="UTF-8" standalone="no"?><!DOCTYPE svg PUBLIC "-//W3C//DTD SVG 1.1//EN" "http://www.w3.org/Graphics/SVG/1.1/DTD/svg11.dtd"><svg width="100%" height="100%" viewBox="0 0 1639 984" version="1.1" xmlns="http://www.w3.org/2000/svg" xmlns:xlink="http://www.w3.org/1999/xlink" xml:space="preserve" xmlns:serif="http://www.serif.com/" style="fill-rule:evenodd;clip-rule:evenodd;stroke-linecap:round;stroke-linejoin:round;stroke-miterlimit:1.5;"><g transform="matrix(4.16667,0,0,4.16667,37.5143,-1069.42)"><text x="156.356px" y="278.443px" style="font-family:'Calibre-Bold', 'Calibre', sans-serif;font-weight:700;font-size:12px;fill:#799dab;">g<tspan x="162.968px 169.064px 175.772px 180.512px 187.076px 190.34px 196.688px 202.784px 207.5px " y="278.443px 278.443px 278.443px 278.443px 278.443px 278.443px 278.443px 278.443px 278.443px ">ebruikers</tspan></text><text x="167.282px" y="292.843px" style="font-family:'Calibre-Bold', 'Calibre', sans-serif;font-weight:700;font-size:12px;fill:#799dab;">g<tspan x="173.894px 179.99px 189.578px 195.674px " y="292.843px 292.843px 292.843px 292.843px ">emak</tspan></text></g><g transform="matrix(4.16667,0,0,4.16667,54.8955,-932.627)"><g transform="matrix(0.962308,0,0,1,5.44613,0)"><text x="144.491px" y="270.982px" style="font-family:'Calibre-Regular', 'Calibre', sans-serif;font-size:10px;fill:#799dab;">M<tspan x="152.151px 157.021px 160.491px 163.001px 168.081px 173.271px 177.859px 182.729px 185.239px 189.679px 194.759px 197.98px 201.377px 207.936px 212.736px 216.111px " y="270.982px 270.982px 270.982px 270.982px 270.982px 270.982px 270.982px 270.982px 270.982px 270.982px 270.982px 270.982px 270.982px 270.982px 270.982px 270.982px ">et onze software</tspan></text></g><g transform="matrix(0.962308,0,0,1,5.82867,0)"><text x="154.64px" y="278.982px" style="font-family:'Calibre-Regular', 'Calibre', sans-serif;font-size:10px;fill:#799dab;">v<tspan x="159.407px 164.277px 167.787px 173.107px 175.497px 180.687px 186.007px 190.877px 196.067px 198.577px 205.167px " y="278.982px 278.982px 278.982px 278.982px 278.982px 278.982px 278.982px 278.982px 278.982px 278.982px 278.982px ">erbinden we</tspan></text></g><g transform="matrix(0.962308,0,0,1,5.80442,0)"><text x="153.997px" y="286.982px" style="font-family:'Calibre-Regular', 'Calibre', sans-serif;font-size:10px;fill:#799dab;">g<tspan x="159.307px 164.177px 169.497px 173.007px 178.177px 180.567px 185.372px 190.242px 193.72px 198.16px 200.67px 205.54px " y="286.982px 286.982px 286.982px 286.982px 286.982px 286.982px 286.982px 286.982px 286.982px 286.982px 286.982px 286.982px ">ebruikers en</tspan></text></g><g transform="matrix(0.962308,0,0,1,6.11892,0)"><text x="162.341px" y="294.982px" style="font-family:'Calibre-Regular', 'Calibre', sans-serif;font-size:10px;fill:#799dab;">s<tspan x="166.697px 171.475px 175.915px 179.333px 184.203px 191.673px 196.543px " y="294.982px 294.982px 294.982px 294.982px 294.982px 294.982px 294.982px ">ystemen</tspan></text></g></g><text x="739.941px" y="627.997px" style="font-family:'Calibre-Bold', 'Calibre', sans-serif;font-weight:700;font-size:50px;fill:#799dab;">m<tspan x="779.891px 793.491px 817.391px 841.291px 854.891px " y="627.997px 627.997px 627.997px 627.997px 627.997px ">issie</tspan></text><g transform="matrix(4.16667,0,0,4.16667,-1340.66,-379.511)"><text x="617.53px" y="214.843px" style="font-family:'Calibre-Regular', 'Calibre', sans-serif;font-size:9px;fill:#799dab;">W<tspan x="624.703px 626.854px 628.987px 631.246px 635.242px 638.302px 642.622px 646.942px 651.613px 653.872px 658.165px 662.755px 667.327px 670.486px 672.745px 677.164px 683.068px 687.388px 689.539px 691.69px 694.768px 699.151px 701.302px 704.533px " y="214.843px 214.843px 214.843px 214.843px 214.843px 214.843px 214.843px 214.843px 214.843px 214.843px 214.843px 214.843px 214.843px 214.843px 214.843px 214.843px 214.843px 214.843px 214.843px 214.843px 214.843px 214.843px 214.843px 214.843px ">ij staan voor kwaliteit.</tspan></text><text x="616.554px" y="225.643px" style="font-family:'Calibre-Regular', 'Calibre', sans-serif;font-size:9px;fill:#799dab;">W<tspan x="623.727px 625.878px 628.011px 630.27px 635.049px 639.432px 641.583px 646.083px 650.376px 654.759px 659.43px 661.689px 663.84px 668.511px 670.77px 675.342px 680.013px 684.396px 686.547px 691.218px 696.006px 698.157px 702.936px " y="225.643px 225.643px 225.643px 225.643px 225.643px 225.643px 225.643px 225.643px 225.643px 225.643px 225.643px 225.643px 225.643px 225.643px 225.643px 225.643px 225.643px 225.643px 225.643px 225.643px 225.643px 225.643px 225.643px ">ij geloven in oneindige</tspan></text><text x="621.292px" y="236.443px" style="font-family:'Calibre-Regular', 'Calibre', sans-serif;font-size:9px;fill:#799dab;">g<tspan x="626.071px 629.113px 633.703px 638.086px 640.237px 642.496px 646.879px 651.55px 653.809px 657.805px 660.928px 663.97px 668.308px 672.601px 676.984px 681.655px 683.914px 688.234px 690.385px 693.508px 695.659px 697.792px " y="236.443px 236.443px 236.443px 236.443px 236.443px 236.443px 236.443px 236.443px 236.443px 236.443px 236.443px 236.443px 236.443px 236.443px 236.443px 236.443px 236.443px 236.443px 236.443px 236.443px 236.443px 236.443px ">roei en streven altijd</tspan></text><text x="635.022px" y="247.243px" style="font-family:'Calibre-Regular', 'Calibre', sans-serif;font-size:9px;fill:#799dab;">n<tspan x="639.693px 644.013px 648.333px 651.492px 653.751px 658.422px 662.805px 665.928px 668.187px 672.993px 677.394px 681.39px 684.468px " y="247.243px 247.243px 247.243px 247.243px 247.243px 247.243px 247.243px 247.243px 247.243px 247.243px 247.243px 247.243px 247.243px ">aar het beste</tspan></text></g><g transform="matrix(4.16667,0,0,4.16667,-344.925,-671.989)"><text x="249.299px" y="324.775px" style="font-family:'Calibre-Regular', 'Calibre', sans-serif;font-size:7px;fill:#799dab;">O<tspan x="253.912px 257.545px 260.758px 264.167px 265.924px 271.153px 272.826px 275.948px 279.056px 280.729px 284.138px 285.895px 287.568px 290.676px 292.433px 296.066px 299.475px " y="324.775px 324.775px 324.775px 324.775px 324.775px 324.775px 324.775px 324.775px 324.775px 324.775px 324.775px 324.775px 324.775px 324.775px 324.775px 324.775px 324.775px ">nze missie is het</tspan></text><text x="238.778px" y="333.175px" style="font-family:'Calibre-Regular', 'Calibre', sans-serif;font-size:7px;fill:#799dab;">o<tspan x="242.334px 245.967px 248.347px 252.96px 254.633px 258.091px 261.458px 264.867px 266.54px 269.949px 273.582px 275.339px 278.65px 282.01px 285.643px 287.4px 290.508px 294.064px 296.318px 298.698px 303.29px 306.65px 309.016px " y="333.175px 333.175px 333.175px 333.175px 333.175px 333.175px 333.175px 333.175px 333.175px 333.175px 333.175px 333.175px 333.175px 333.175px 333.175px 333.175px 333.175px 333.175px 333.175px 333.175px 333.175px 333.175px 333.175px ">ntwikkelen van software</tspan></text><text x="237.109px" y="341.575px" style="font-family:'Calibre-Regular', 'Calibre', sans-serif;font-size:7px;fill:#799dab;">o<tspan x="240.665px 244.389px 246.062px 249.618px 252.74px 255.848px 257.521px 261.154px 264.871px 268.28px 271.913px 273.67px 277.394px 279.067px 282.476px 284.233px 287.593px 290.953px 294.586px 297.694px 299.367px 302.986px 304.659px 307.053px 310.462px " y="341.575px 341.575px 341.575px 341.575px 341.575px 341.575px 341.575px 341.575px 341.575px 341.575px 341.575px 341.575px 341.575px 341.575px 341.575px 341.575px 341.575px 341.575px 341.575px 341.575px 341.575px 341.575px 341.575px 341.575px 341.575px ">plossingen die aansluiten</tspan></text><text x="249.87px" y="349.975px" style="font-family:'Calibre-Regular', 'Calibre', sans-serif;font-size:7px;fill:#799dab;">a<tspan x="253.23px 256.59px 260.223px 261.98px 265.599px 270.212px 271.969px 275.077px 278.815px 282.238px 285.57px 287.243px 289.476px 291.149px 294.558px 297.925px " y="349.975px 349.975px 349.975px 349.975px 349.975px 349.975px 349.975px 349.975px 349.975px 349.975px 349.975px 349.975px 349.975px 349.975px 349.975px 349.975px ">an uw specifieke</tspan></text><text x="233.336px" y="358.375px" style="font-family:'Calibre-Regular', 'Calibre', sans-serif;font-size:7px;fill:#799dab;">b<tspan x="237.074px 240.483px 244.116px 247.686px 251.41px 253.083px 256.8px 260.433px 263.856px 267.58px 270.989px 274.622px 276.029px 277.786px 282.399px 287.628px 289.385px 294.614px 298.023px 301.656px 304.764px 308.173px 311.806px 313.563px " y="358.375px 358.375px 358.375px 358.375px 358.375px 358.375px 358.375px 358.375px 358.375px 358.375px 358.375px 358.375px 358.375px 358.375px 358.375px 358.375px 358.375px 358.375px 358.375px 358.375px 358.375px 358.375px 358.375px 358.375px ">enodigheden. Om mensen &amp;</tspan></text><text x="234.736px" y="366.775px" style="font-family:'Calibre-Regular', 'Calibre', sans-serif;font-size:7px;fill:#799dab;">b<tspan x="238.474px 241.897px 245.621px 248.078px 249.751px 251.41px 254.749px 258.158px 261.791px 263.548px 265.942px 269.351px 271.108px 274.447px 277.856px 280.313px 284.037px 285.71px 289.343px 293.067px 296.476px 300.109px 301.866px 305.275px 308.908px 310.665px 313.059px " y="366.775px 366.775px 366.775px 366.775px 366.775px 366.775px 366.775px 366.775px 366.775px 366.775px 366.775px 366.775px 366.775px 366.775px 366.775px 366.775px 366.775px 366.775px 366.775px 366.775px 366.775px 366.775px 366.775px 366.775px 366.775px 366.775px 366.775px ">edrijven te verbinden en te</tspan></text><text x="260.121px" y="375.175px" style="font-family:'Calibre-Regular', 'Calibre', sans-serif;font-size:7px;fill:#799dab;">v<tspan x="263.46px 266.869px 269.305px 272.413px 274.807px 278.216px 280.673px 284.04px 287.449px " y="375.175px 375.175px 375.175px 375.175px 375.175px 375.175px 375.175px 375.175px 375.175px ">ersterken</tspan></text></g><g transform="matrix(4.16667,0,0,4.16667,-1268.36,-317.072)"><text x="618.213px" y="176.175px" style="font-family:'Calibre-Bold', 'Calibre', sans-serif;font-weight:700;font-size:12px;fill:#799dab;">k<tspan x="624.789px 633.273px 639.369px 642.633px 645.897px 650.529px 656.625px 659.889px 664.521px " y="176.175px 176.175px 176.175px 176.175px 176.175px 176.175px 176.175px 176.175px 176.175px ">waliteits</tspan></text><text x="619.827px" y="190.575px" style="font-family:'Calibre-Bold', 'Calibre', sans-serif;font-weight:700;font-size:12px;fill:#799dab;">g<tspan x="626.439px 632.607px 639.315px 643.983px 649.863px 655.959px 662.055px " y="190.575px 190.575px 190.575px 190.575px 190.575px 190.575px 190.575px ">edreven</tspan></text></g><text x="164.191px" y="303.085px" style="font-family:'Calibre-Bold', 'Calibre', sans-serif;font-weight:700;font-size:50px;fill:#799dab;">v<tspan x="190.541px 204.141px 228.041px 241.641px " y="303.085px 303.085px 303.085px 303.085px ">isie</tspan></text><g transform="matrix(4.16667,0,0,4.16667,-533.71,-1241.87)"><text x="140.015px" y="379.577px" style="font-family:'Calibre-Regular', 'Calibre', sans-serif;font-size:10px;fill:#799dab;">W<tspan x="147.985px 150.375px 152.745px 155.255px 159.895px 162.285px 167.155px 172.345px 174.855px 179.745px 184.615px 189.805px 192.315px 198.905px 203.775px 207.155px 212.025px 214.415px " y="379.577px 379.577px 379.577px 379.577px 379.577px 379.577px 379.577px 379.577px 379.577px 379.577px 379.577px 379.577px 379.577px 379.577px 379.577px 379.577px 379.577px 379.577px ">ij zien een wereld</tspan></text><text x="132.605px" y="387.577px" style="font-family:'Calibre-Regular', 'Calibre', sans-serif;font-size:10px;fill:#799dab;">w<tspan x="139.165px 143.965px 148.765px 152.275px 154.665px 159.855px 162.365px 167.555px 172.425px 175.895px 178.405px 183.715px 188.585px 193.905px 197.415px 202.585px 204.975px 209.915px 212.425px 217.155px 221.955px " y="387.577px 387.577px 387.577px 387.577px 387.577px 387.577px 387.577px 387.577px 387.577px 387.577px 387.577px 387.577px 387.577px 387.577px 387.577px 387.577px 387.577px 387.577px 387.577px 387.577px 387.577px ">aarin het gebruik van</tspan></text><text x="147.89px" y="395.577px" style="font-family:'Calibre-Regular', 'Calibre', sans-serif;font-size:10px;fill:#799dab;">s<tspan x="152.33px 157.41px 160.63px 164.03px 170.59px 175.39px 178.77px 183.64px 186.15px 191.34px 196.21px 199.68px 202.19px 206.78px " y="395.577px 395.577px 395.577px 395.577px 395.577px 395.577px 395.577px 395.577px 395.577px 395.577px 395.577px 395.577px 395.577px 395.577px ">oftware net zo</tspan></text><text x="148.645px" y="403.577px" style="font-family:'Calibre-Regular', 'Calibre', sans-serif;font-size:10px;fill:#799dab;">m<tspan x="156.115px 160.915px 165.855px 170.665px 175.535px 177.925px 180.315px 182.685px 187.625px 190.135px 192.525px 196.965px 199.475px 204.275px 206.665px " y="403.577px 403.577px 403.577px 403.577px 403.577px 403.577px 403.577px 403.577px 403.577px 403.577px 403.577px 403.577px 403.577px 403.577px 403.577px ">akkelijk is als</tspan></text><text x="162.61px" y="411.577px" style="font-family:'Calibre-Regular', 'Calibre', sans-serif;font-size:10px;fill:#799dab;">a<tspan x="167.41px 172.73px 177.6px 185.07px 189.94px 195.13px " y="411.577px 411.577px 411.577px 411.577px 411.577px 411.577px ">demen.</tspan></text></g><g><path d="M617.995,650.499l-222.537,-139.737l-5.539,8.822l222.536,139.736l5.54,-8.821Z" style="fill:none;stroke:#799dab;stroke-width:4.17px;"/><path d="M1225.85,437.363l-221.461,-123.845l-5.085,9.092l221.462,123.844l5.084,-9.091Z" style="fill:none;stroke:#799dab;stroke-width:4.17px;"/><path d="M1214.87,625.755l-202.414,61.287l3.019,9.969l202.413,-61.286l-3.018,-9.97Z" style="fill:none;stroke:#799dab;stroke-width:4.17px;"/><path d="M590.944,265.197l-160.997,49.991l3.089,9.948l160.997,-49.991l-3.089,-9.948Z" style="fill:none;stroke:#799dab;stroke-width:4.17px;"/><g><circle cx="220.833" cy="379.489" r="218.75" style="fill:none;stroke:#799dab;stroke-width:4.17px;"/><circle cx="220.879" cy="379.489" r="208.333" style="fill:none;stroke:#799dab;stroke-width:4.17px;"/></g><g><circle cx="1417.56" cy="543.3" r="218.75" style="fill:none;stroke:#799dab;stroke-width:4.17px;"/><circle cx="1417.61" cy="543.3" r="208.333" style="fill:none;stroke:#799dab;stroke-width:4.17px;"/></g><g><circle cx="805.794" cy="762.5" r="218.75" style="fill:none;stroke:#799dab;stroke-width:4.17px;"/><circle cx="805.84" cy="762.5" r="208.333" style="fill:none;stroke:#799dab;stroke-width:4.17px;"/></g><g><circle cx="805.794" cy="220.833" r="218.75" style="fill:none;stroke:#799dab;stroke-width:4.17px;"/><circle cx="805.84" cy="220.833" r="208.333" style="fill:none;stroke:#799dab;stroke-width:4.17px;"/></g></g></svg>