<?xml version="1.0" encoding="UTF-8" standalone="no"?>
<!DOCTYPE svg PUBLIC "-//W3C//DTD SVG 1.1//EN" "http://www.w3.org/Graphics/SVG/1.1/DTD/svg11.dtd">
<svg width="100%" height="100%" viewBox="0 0 394 236" version="1.1" xmlns="http://www.w3.org/2000/svg" xmlns:xlink="http://www.w3.org/1999/xlink" xml:space="preserve" xmlns:serif="http://www.serif.com/" style="fill-rule:evenodd;clip-rule:evenodd;stroke-linecap:round;stroke-linejoin:round;stroke-miterlimit:1.5;">
    <g transform="matrix(1,0,0,1,-178.609,-41)">
        <g transform="matrix(1,0,0,1,-17.1662,-8.05761)">
            <text x="511.612px" y="148.322px" style="font-family:'Calibre-Bold', 'Calibre', sans-serif;font-weight:700;font-size:12px;fill:rgb(121,157,171);">kw<tspan x="525.952px " y="148.322px ">a</tspan>liteits</text>
            <text x="512.866px" y="162.722px" style="font-family:'Calibre-Bold', 'Calibre', sans-serif;font-weight:700;font-size:12px;fill:rgb(121,157,171);">gedre<tspan x="541.102px 546.838px " y="162.722px 162.722px ">ve</tspan>n</text>
        </g>
        <g transform="matrix(1,0,0,1,-43.1443,-17.1875)">
            <text x="520.375px" y="183.447px" style="font-family:'Calibre-Regular', 'Calibre', sans-serif;font-size:9px;fill:rgb(121,157,171);">Wij staan v<tspan x="558.04px " y="183.447px ">o</tspan>or kwaliteit.</text>
            <text x="537.317px" y="194.247px" style="font-family:'Calibre-Regular', 'Calibre', sans-serif;font-size:9px;fill:rgb(121,157,171);">Wij gelov<tspan x="568.709px " y="194.247px ">e</tspan>n in</text>
            <text x="534.554px" y="205.047px" style="font-family:'Calibre-Regular', 'Calibre', sans-serif;font-size:9px;fill:rgb(121,157,171);">oneindige gr<tspan x="577.943px " y="205.047px ">o</tspan>ei</text>
            <text x="533.659px" y="215.847px" style="font-family:'Calibre-Regular', 'Calibre', sans-serif;font-size:9px;fill:rgb(121,157,171);">en str<tspan x="553.513px 557.581px 561.604px " y="215.847px 215.847px 215.847px ">eve</tspan>n altijd</text>
            <text x="536.381px" y="226.647px" style="font-family:'Calibre-Regular', 'Calibre', sans-serif;font-size:9px;fill:rgb(121,157,171);">naar het beste</text>
        </g>
        <g transform="matrix(1,0,0,1,-9.44722,-4.89855)">
            <text x="365.656px" y="196.618px" style="font-family:'Calibre-Bold', 'Calibre', sans-serif;font-weight:700;font-size:12px;fill:rgb(121,157,171);">missie</text>
        </g>
        <g transform="matrix(1,0,0,1,-38.5364,-23.3324)">
            <text x="385.383px" y="224.461px" style="font-family:'Calibre-Regular', 'Calibre', sans-serif;font-size:7px;fill:rgb(121,157,171);">Onze missie is het</text>
            <text x="387.938px" y="232.861px" style="font-family:'Calibre-Regular', 'Calibre', sans-serif;font-size:7px;fill:rgb(121,157,171);">ontwikk<tspan x="409.148px " y="232.861px ">e</tspan>len van</text>
            <text x="381.102px" y="241.261px" style="font-family:'Calibre-Regular', 'Calibre', sans-serif;font-size:7px;fill:rgb(121,157,171);">softwar<tspan x="401.248px " y="241.261px ">e</tspan> oplossingen</text>
            <text x="366.332px" y="249.661px" style="font-family:'Calibre-Regular', 'Calibre', sans-serif;font-size:7px;fill:rgb(121,157,171);">die aansluiten aan uw specifieke</text>
            <text x="389.814px" y="258.061px" style="font-family:'Calibre-Regular', 'Calibre', sans-serif;font-size:7px;fill:rgb(121,157,171);">benodigheden.</text>
            <text x="378.327px" y="266.461px" style="font-family:'Calibre-Regular', 'Calibre', sans-serif;font-size:7px;fill:rgb(121,157,171);">Om mensen &amp; bedrijven</text>
            <text x="388.69px" y="274.861px" style="font-family:'Calibre-Regular', 'Calibre', sans-serif;font-size:7px;fill:rgb(121,157,171);">te verbinden en</text>
            <text x="391.9px" y="283.261px" style="font-family:'Calibre-Regular', 'Calibre', sans-serif;font-size:7px;fill:rgb(121,157,171);">te ver<tspan x="407.384px " y="283.261px ">s</tspan>terk<tspan x="421.069px " y="283.261px ">e</tspan>n</text>
        </g>
        <g transform="matrix(1,0,0,1,-28.5515,-18.3955)">
            <text x="221.801px" y="149.332px" style="font-family:'Calibre-Regular', 'Calibre', sans-serif;font-size:10px;fill:rgb(121,157,171);">Wij zien een wer<tspan x="284.141px " y="149.332px ">e</tspan>ld</text>
            <text x="222.856px" y="157.332px" style="font-family:'Calibre-Regular', 'Calibre', sans-serif;font-size:10px;fill:rgb(121,157,171);">waarin het gebruik</text>
            <text x="226.701px" y="165.332px" style="font-family:'Calibre-Regular', 'Calibre', sans-serif;font-size:10px;fill:rgb(121,157,171);">v<tspan x="231.131px " y="165.332px ">a</tspan>n softwar<tspan x="271.511px " y="165.332px ">e</tspan> net</text>
            <text x="230.811px" y="173.332px" style="font-family:'Calibre-Regular', 'Calibre', sans-serif;font-size:10px;fill:rgb(121,157,171);">zo makk<tspan x="262.911px " y="173.332px ">e</tspan>lijk is</text>
            <text x="236.126px" y="181.332px" style="font-family:'Calibre-Regular', 'Calibre', sans-serif;font-size:10px;fill:rgb(121,157,171);">als ademen.</text>
        </g>
        <g transform="matrix(1,0,0,1,-8.66666,-3.54839)">
            <text x="227.672px" y="117.289px" style="font-family:'Calibre-Bold', 'Calibre', sans-serif;font-weight:700;font-size:12px;fill:rgb(121,157,171);">visie</text>
        </g>
        <g transform="matrix(0.962308,0,0,1,-66.6064,-9.59931)">
            <text x="420.459px" y="108.54px" style="font-family:'Calibre-Regular', 'Calibre', sans-serif;font-size:10px;fill:rgb(121,157,171);">Met onze softw<tspan x="479.709px 484.209px 487.289px " y="108.54px 108.54px 108.54px ">are</tspan></text>
            <text x="430.259px" y="116.54px" style="font-family:'Calibre-Regular', 'Calibre', sans-serif;font-size:10px;fill:rgb(121,157,171);">verbinden we</text>
            <text x="410.134px" y="124.54px" style="font-family:'Calibre-Regular', 'Calibre', sans-serif;font-size:10px;fill:rgb(121,157,171);">gebruik<tspan x="439.414px " y="124.54px ">e</tspan>rs en s<tspan x="469.244px " y="124.54px ">y</tspan>st<tspan x="480.984px " y="124.54px ">e</tspan>men</text>
        </g>
        <g transform="matrix(1,0,0,1,-25.4217,5.71967)">
            <text x="371.411px" y="64.598px" style="font-family:'Calibre-Bold', 'Calibre', sans-serif;font-weight:700;font-size:12px;fill:rgb(121,157,171);">gebruik<tspan x="409.223px " y="64.598px ">e</tspan>rs</text>
            <text x="382.637px" y="78.998px" style="font-family:'Calibre-Bold', 'Calibre', sans-serif;font-weight:700;font-size:12px;fill:rgb(121,157,171);">gemak</text>
        </g>
        <g>
            <g transform="matrix(0.603778,0.379129,-0.22134,0.352493,228.117,8.36196)">
                <rect x="169.711" y="257.817" width="88.458" height="6.006" style="fill:none;stroke:rgb(121,157,171);stroke-width:1.71px;"/>
            </g>
            <g transform="matrix(0.600862,0.33601,-0.203151,0.36328,370.064,-34.4398)">
                <rect x="169.711" y="257.817" width="88.458" height="6.006" style="fill:none;stroke:rgb(121,157,171);stroke-width:1.76px;"/>
            </g>
            <g transform="matrix(0.549181,-0.166281,0.120617,0.398365,297.299,131.405)">
                <rect x="169.711" y="257.817" width="88.458" height="6.006" style="fill:none;stroke:rgb(121,157,171);stroke-width:2px;"/>
            </g>
            <g transform="matrix(0.43681,-0.135634,0.123428,0.397503,175.843,37.1808)">
                <rect x="169.711" y="257.817" width="88.458" height="6.006" style="fill:none;stroke:rgb(121,157,171);stroke-width:2.29px;"/>
            </g>
            <g transform="matrix(1,0,0,1,16.381,-58.9718)">
                <g transform="matrix(0.971457,0,0,1.00305,-11.4104,10.5004)">
                    <ellipse cx="233.298" cy="180" rx="54.043" ry="52.34" style="fill:none;stroke:rgb(121,157,171);stroke-width:1.01px;"/>
                </g>
                <g transform="matrix(0.925197,0,0,0.955285,-0.607189,19.0979)">
                    <ellipse cx="233.298" cy="180" rx="54.043" ry="52.34" style="fill:none;stroke:rgb(121,157,171);stroke-width:1.06px;"/>
                </g>
            </g>
            <g transform="matrix(1,0,0,1,303.595,-19.6573)">
                <g transform="matrix(0.971457,0,0,1.00305,-11.4104,10.5004)">
                    <ellipse cx="233.298" cy="180" rx="54.043" ry="52.34" style="fill:none;stroke:rgb(121,157,171);stroke-width:1.01px;"/>
                </g>
                <g transform="matrix(0.925197,0,0,0.955285,-0.607189,19.0979)">
                    <ellipse cx="233.298" cy="180" rx="54.043" ry="52.34" style="fill:none;stroke:rgb(121,157,171);stroke-width:1.06px;"/>
                </g>
            </g>
            <g transform="matrix(1,0,0,1,156.772,32.9509)">
                <g transform="matrix(0.971457,0,0,1.00305,-11.4104,10.5004)">
                    <ellipse cx="233.298" cy="180" rx="54.043" ry="52.34" style="fill:none;stroke:rgb(121,157,171);stroke-width:1.01px;"/>
                </g>
                <g transform="matrix(0.925197,0,0,0.955285,-0.607189,19.0979)">
                    <ellipse cx="233.298" cy="180" rx="54.043" ry="52.34" style="fill:none;stroke:rgb(121,157,171);stroke-width:1.06px;"/>
                </g>
            </g>
            <g>
                <g transform="matrix(0.971457,0,0,1.00305,145.361,-86.5488)">
                    <ellipse cx="233.298" cy="180" rx="54.043" ry="52.34" style="fill:none;stroke:rgb(121,157,171);stroke-width:1.01px;"/>
                </g>
                <g transform="matrix(0.925197,0,0,0.955285,156.164,-77.9512)">
                    <ellipse cx="233.298" cy="180" rx="54.043" ry="52.34" style="fill:none;stroke:rgb(121,157,171);stroke-width:1.06px;"/>
                </g>
            </g>
        </g>
    </g>
</svg>
